# xmcd
#
# Track frame offsets:
#	150
#	3264
#	29936
#	46072
#	65360
#	87011
#
# Disc length: 1720 seconds
#
# Revision: 1
# Processed by: cddbd v1.5.2PL0 Copyright (c) Steve Scherf et al.
# Submitted via: audiograbber 1.83.01
#
DISCID=4106b606
DTITLE=Penetration - Victory or Death
DYEAR=2008
DGENRE=Thrash Metal
TTITLE0=Bring the ancient one's back
TTITLE1=Prepare for war
TTITLE2=Eaten by wolves
TTITLE3=Iraq
TTITLE4=Victory or death
TTITLE5=Bishop slayer
EXTD=
EXTT0=
EXTT1=
EXTT2=
EXTT3=
EXTT4=
EXTT5=
PLAYORDER=
